<?xml version="1.0" encoding="UTF-8"?>
<!DOCTYPE svg PUBLIC "-//W3C//DTD SVG 1.1//EN" "http://www.w3.org/Graphics/SVG/1.1/DTD/svg11.dtd">
<!-- Creator: CorelDRAW -->
<svg xmlns="http://www.w3.org/2000/svg" xml:space="preserve" width="98.868mm" height="98.8683mm" version="1.1" style="shape-rendering:geometricPrecision; text-rendering:geometricPrecision; image-rendering:optimizeQuality; fill-rule:evenodd; clip-rule:evenodd"
viewBox="0 0 5894.21 5894.22"
 xmlns:xlink="http://www.w3.org/1999/xlink">
 <defs>
  <style type="text/css">
   <![CDATA[
    .fil0 {fill:#D0472C}
   ]]>
  </style>
 </defs>
 <g id="??_x0020_1">
  <metadata id="CorelCorpID_0Corel-Layer"/>
  <path class="fil0" d="M397.81 3579.59l-29.29 -198.1c-2.96,-20.04 6.05,-43.15 41.91,-47.93l488.33 -65.24c21.51,-2.89 37,7.78 40.16,29.24 3.09,20.77 -10.05,35.94 -30.12,38.63l-441.01 58.88c-11.47,1.56 -17.31,6.57 -16.07,14.87l23.55 159.29c2.03,13.86 -15.17,26.02 -33.09,28.4 -20.07,2.66 -42.23,-3.51 -44.38,-18.05z"/>
  <path class="fil0" d="M489.41 3719.35c-9.31,-18.32 -9.82,-39.88 5.3,-57.12 13.18,-14.73 35.18,-26.96 58.96,-28.84 20.65,-1.64 39.34,7.55 47.69,21.71 10.64,18.56 9.14,45.2 -9.84,62.32 -12.66,11.37 -35.97,20.82 -55.28,22.65 -19.92,2.04 -39.79,-6.81 -46.83,-20.72z"/>
  <path class="fil0" d="M598.28 4114.84c-19.19,-15.83 -23.41,-44.87 -0.24,-65.72l324.64 -303.19 -389.55 172.71c-14.68,6.52 -36.8,2.53 -45.28,-15.67 -10.33,-22.27 -1.82,-36.55 17.09,-44.92l491.63 -218.01c18.9,-8.44 31.11,-5.72 43.2,0.32 15.05,8.75 24.43,21.72 22.29,38.89 -0.87,12.59 -6.84,23.32 -19.32,34.57l-316.73 294.78 374.18 -165.85c16.1,-7.15 38.84,-1.76 46.05,13.68 9.72,20.9 3.85,37.28 -17.82,46.94l-470.01 208.4c-20.27,8.94 -46.55,14.14 -60.14,3.09z"/>
  <path class="fil0" d="M1337.78 4327.4l-57.52 -79.31 -366.76 330.61c-19.39,17.52 -38.83,16.7 -52.37,-1.96 -13.96,-19.24 -9.6,-40.49 9.22,-57.5l366.77 -330.59 -55.84 -76.95c-13.12,-18.06 -5.76,-39.12 10.76,-54.05 22.24,-20.01 38.85,-20.57 52,-2.46l156.48 215.65c12.68,17.5 3.2,39.56 -12.78,53.95 -14.25,12.85 -38.98,17.8 -49.97,2.61z"/>
  <path class="fil0" d="M1175.63 4918.5l-121.16 -150.06c-17.01,-21.03 -17.4,-48.96 7.15,-73.48l344.03 -343.7c21.85,-21.78 52.78,-20.54 68.04,-1.59l109.83 135.99c7.37,9.19 13.57,26.42 4.01,40.87 -8.48,13.31 -18.7,24.54 -31.71,28.73 -11.04,4.2 -21.65,-1.79 -29.92,-12.01l-85.86 -106.36c-7.42,-9.19 -13.03,-11.37 -25.3,0.86l-103.47 103.41 91.5 113.37c6.1,7.57 6.37,20.99 1.73,34.35 -4.08,12.8 -23.33,27.23 -31.7,28.79 -12.82,2.02 -19.74,-1.79 -24.96,-8.25l-91.51 -113.42 -118.96 118.82c-11.17,11.19 -7.99,18.74 -1.91,26.31l96.32 119.34c3.92,4.79 6.43,19.89 2.76,28.43 -5.68,14.45 -13.88,24.59 -27.26,33.05 -12.86,7.99 -27.76,1.42 -31.67,-3.43z"/>
  <path class="fil0" d="M1463.1 5048.8c-66.45,28.03 -120.69,10.73 -150.4,-34.32 -21.39,-32.85 -25.62,-81.14 -9.88,-134.37 16.38,-57.92 65.48,-128.19 103.43,-171.2 66.87,-77.66 152.6,-141.21 226.76,-152.4 53.77,-8.75 101.1,33.11 108.78,88.36 4.73,34.95 -4.52,86.73 -28.29,132.31 -13.35,24.99 -22.71,54.22 -46.51,62.5 -13.52,4.46 -31.52,-7.61 -35.22,-20.17 -6.61,-21.01 16.6,-51.27 26.64,-73.38 12.05,-27.47 23.59,-53.25 17.84,-73.34 -15.63,-52.14 -59.47,-49.7 -104.77,-21.05 -43.38,26.49 -96.21,73.51 -131.97,118.87 -33.78,42.19 -70.02,100.87 -74.7,140.59 -5.88,48.96 10.06,79.1 49.28,77.98 29.53,-0.92 60.65,-20.46 96.13,-45.85 17.52,-12.94 32.33,-2.17 38.9,8.07 15.24,24.06 -1.23,46.65 -27.24,64.27 -17.91,11.42 -41.45,25.33 -58.79,33.11z"/>
  <path class="fil0" d="M1689.64 5322.75c-13.6,-11.06 -20.13,-26.01 -7.69,-45.74l130.47 -206.51 -115.61 -94.26 -130.5 206.51c-10.82,17.14 -29.02,15.8 -40.08,6.8 -10.56,-8.58 -17.21,-29.38 -7.17,-45.37l290.27 -459.37c11.27,-17.8 30.96,-15.23 40.1,-6.77 9.65,8.81 20,24.99 7.17,45.3l-119.65 189.37 115.63 94.28 119.65 -189.34c11.23,-17.84 28.03,-16.66 40.59,-6.41 10.06,8.22 17.12,28.4 6.67,44.95l-290.26 459.39c-12.47,19.69 -30.08,15 -39.6,7.19z"/>
  <path class="fil0" d="M2092.38 5470.71c-22.59,1.3 -43.29,-16.96 -40.7,-47.78l29.28 -438.62 -152.97 387.24c-5.78,14.61 -22.99,26.52 -39.83,18.95 -20.62,-9.22 -23.77,-25.37 -16.36,-44.15l193.09 -488.72c7.42,-18.78 17.22,-25.02 28.98,-28.77 15.43,-3.68 29.64,-0.61 38.82,13.35 7.17,9.78 9.82,21.62 8.44,38.17l-29.15 427.21 146.93 -371.92c6.28,-15.97 24.75,-27.33 39.1,-20.9 19.37,8.68 25.59,24.57 17.06,46.13l-184.56 467.19c-7.97,20.1 -22.29,41.52 -38.13,42.61z"/>
  <path class="fil0" d="M2271.08 5539.77c-20.32,-5.19 -35.79,-20.25 -29.89,-43.36l136.01 -533.26c5.34,-20.84 28.88,-28.37 46.31,-23.89 15.23,3.89 32.64,23.43 27.72,42.82l-136.03 533.17c-5.88,23.18 -30.33,28.04 -44.12,24.52z"/>
  <path class="fil0" d="M2660.88 5504.44c-35.33,62.8 -82.25,80.89 -123.94,61.48 -30.24,-14.26 -55.04,-51.54 -67.62,-104.86 -14.22,-57.51 -10.43,-144.83 -2.4,-202.94 13.31,-103.96 46.56,-207.58 95.06,-261.04 34.85,-39.33 87.83,-33.14 118.22,7.83 19.16,26.03 35.79,74.22 39.12,126.06 1.62,28.52 8.05,58.26 -5.43,79.29 -7.74,11.75 -26.16,12.53 -34.47,4.39 -14.25,-13.4 -11.08,-52.14 -13.81,-76.41 -3.66,-29.81 -6.95,-58.01 -20.11,-71.13 -34.74,-33.72 -65.3,-5.47 -85.09,45.2 -19.37,47.72 -36.37,118.07 -41.73,176.81 -5.4,54.97 -5.11,125.03 9.36,160.55 17.8,43.91 42.86,59.27 70.67,34.87 20.86,-18.42 34.55,-53.08 48.73,-95.23 6.81,-21.14 22.36,-21.09 31.69,-16.53 21.83,10.73 20.11,39.19 9.28,69.24 -7.78,20.14 -18.53,45.64 -27.53,62.42z"/>
  <path class="fil0" d="M2864.74 5146.17l-56.33 238.94 109.16 3.61 -52.83 -242.56zm137.29 443.56c-22.17,9.56 -40.91,-2.09 -45.26,-22.05l-22.37 -101.33 -144.26 -4.71 -24.38 99.06c-4.73,19.69 -23.68,30.05 -45.68,19.05 -12.3,-6.29 -21.18,-26.42 -15.12,-49.7l132.46 -516.28c7.45,-29.82 51.61,-27.63 58.45,2.65l122.23 524.65c5.66,23.66 -3.62,43.22 -16.07,48.65z"/>
  <path class="fil0" d="M3304.61 5575.53l-209.26 12.2c-21.22,1.2 -44.63,-10.24 -46.8,-47.88l-29.88 -512.04c-1.33,-22.61 11.04,-37.62 33.71,-38.95 21.96,-1.29 36.74,13.69 37.99,34.74l26.96 462.45c0.72,12.04 5.51,18.56 14.28,18.03l168.25 -9.8c14.62,-0.88 26.02,18.11 27.11,36.91 1.22,21.05 -7,43.43 -22.36,44.33z"/>
  <path class="fil0" d="M3776.49 5429c-12.72,51.7 -48.92,87.95 -90.44,103.81 -43.07,15.69 -92.33,10.5 -129.61,-22.17 -23.6,-20.88 -50.04,-55.9 -62.3,-96.94l-113.31 -378.78c-6.31,-20.87 2.23,-38.32 21.16,-45.22 21.53,-7.83 34.72,2.49 40.78,22.67l103.71 346.45c4.69,15.84 10.09,31.4 17.22,45.52 6.5,14.42 14.68,27.34 25.09,37.96 22.95,23.49 51.4,29.11 76.18,20.08 24.79,-9 45.26,-32.41 50.37,-66.12 2.21,-14.37 0.52,-29.7 -2.71,-45.28 -4.08,-18.41 -10.33,-36.89 -15.25,-53.42l-101.96 -340.72c-4.52,-15.14 1.62,-38.06 19.87,-44.71 20.89,-7.63 35.63,0.57 42.08,22.15l113.39 378.79c8.35,28.06 14.09,83.39 5.74,115.91z"/>
  <path class="fil0" d="M4174.24 5277.85c-12.79,20.39 -38.91,27.2 -60.11,6.23l-306.75 -292.82 193.26 368.85c7.3,13.88 5.63,36.07 -10.24,46.08 -19.41,12.26 -33.3,5.11 -42.65,-12.75l-243.95 -465.47c-9.36,-17.92 -8.01,-30.18 -3.58,-42.67 6.65,-15.65 17.62,-26.12 33.55,-25.58 11.59,-0.25 21.96,4.65 33.36,15.94l298.38 285.77 -185.65 -354.3c-7.97,-15.2 -5.13,-38.1 8.41,-46.66 18.24,-11.49 33.76,-7.24 44.52,13.35l233.18 444.94c10.05,19.18 17.14,44.68 8.26,59.07z"/>
  <path class="fil0" d="M4363.86 5200.6c-18.09,10.62 -40.28,11.53 -53.61,-7.46l-307.75 -438.47c-12.07,-17.14 -1.31,-38.18 14.21,-47.36 13.59,-7.95 40.51,-7.31 51.69,8.63l307.76 438.48c13.37,18.99 -0.02,38.97 -12.3,46.19z"/>
  <path class="fil0" d="M4572.41 4993.44c12.79,27.93 -22.8,62.81 -47.78,47.14 -45.64,-29.47 -414.05,-313.54 -414.05,-313.54 -16.01,-12.56 -24.53,-30.1 -16.17,-52.27 9.29,-24.25 33.27,-24.78 48.33,-12.24l333.59 264.3 -223.16 -385.8c-9.93,-18.13 -8.63,-45.47 12.95,-55.19 20.13,-9.23 35.23,1.09 45.16,20.34 0,0 236.04,428.73 261.15,487.26z"/>
  <path class="fil0" d="M4882.48 4704.69l-129.95 153.64c-18.21,21.59 -43.91,25.59 -68.27,1.51l-341.26 -337.48c-21.7,-21.47 -22.67,-55.9 -6.31,-75.29l117.8 -139.31c7.95,-9.38 23.39,-18.45 37.35,-9.71 12.95,7.69 23.98,17.58 28.77,31.5 4.67,11.69 -0.06,24.23 -8.98,34.74l-92.1 108.85c-7.91,9.43 -9.57,15.95 2.63,28.04l102.63 101.46 98.16 -116.12c6.56,-7.74 18.92,-9.69 31.59,-6.31 12.11,2.86 26.71,22.36 28.71,31.48 2.84,13.92 -0.21,22.11 -5.82,28.75l-98.13 116.09 117.96 116.7c11.15,10.96 17.86,6.46 24.38,-1.26l103.33 -122.21c4.19,-4.96 17.91,-9.68 26.06,-6.67 13.71,4.41 23.66,12.22 32.47,25.95 8.2,13.23 3.22,30.62 -1.01,35.62z"/>
  <path class="fil0" d="M4658.51 4203.43l-46.88 58.66c-7.05,8.75 -2.06,19.92 6.98,27.09l111.87 88.92 43.41 -54.25c19.31,-24.14 37.48,-49.17 12.75,-87.63 -11.44,-18.07 -40.55,-42.97 -60.59,-49.11 -28.05,-8.84 -48.24,-7.76 -67.53,16.31zm454.3 216.69c0.27,10.05 -14.7,32.26 -25.84,32.37 -23.77,0.83 -46.4,-17.14 -70.08,-31.47 -25.91,-16.11 -50.54,-33.86 -76.7,-51.99 -10.05,-7.09 -24.23,-14.83 -34.91,-18.83 -19.2,-7.15 -49.26,-7.71 -61.05,7.09l-54.39 67.97 173.52 137.88c10.7,8.56 16.15,19.13 16.84,28.69 0.38,11.08 -16.03,33.88 -28.03,35.1 -12.07,1.16 -18.93,-0.67 -31.34,-10.58l-382.6 -304.09c-20.88,-16.62 -27.13,-45.79 -13.59,-62.73l82.84 -103.69c26.77,-33.46 75.25,-47.85 128.67,-26.84 24.08,9.26 54.95,28.4 77.5,49.91 37.62,36.19 54.49,72.89 47.93,113.45 33.49,-8.35 79.84,4.24 117.84,31.73 38.09,27.61 77.16,51.49 115.06,73.51 15.88,9 17.92,21.47 18.34,32.51z"/>
  <path class="fil0" d="M5220.31 4128.41c27.05,56.01 -7.26,100.05 -46.08,128.49 -33.9,24.85 -92.66,35.94 -162.09,17.75 -21.03,-5.76 -51.87,-13.65 -61.63,-27.27 -17.6,-25.35 9.44,-48.44 33.25,-43.9 20.08,3.76 46.84,14.3 71.5,17.9 56.93,8.73 93.32,-9.63 101.88,-43.49 10.24,-40.03 -32.31,-65.58 -56.14,-79.48 -17.31,-10.03 -47.53,-17.6 -66.96,-11.69 -24.69,7.92 -36.87,11.63 -59.18,23.05 -27.49,14.21 -58.97,28.96 -89.51,36.37 -46.24,11.08 -101.1,-4.29 -148.21,-41.14 -44.19,-35.07 -56.07,-83.75 -44.19,-114.2 11.95,-30.46 41.41,-58.56 76.51,-73.36 26.65,-11.15 65.58,-17.88 95.04,-13.67 21.5,3.17 47.96,17.18 43.07,39.51 -5.78,27.53 -53.86,16.81 -72.83,20.13 -38.95,6.77 -67.72,17.32 -73.23,50.76 -7.51,43.13 68.73,91.91 118.51,68.36 34.72,-16.41 65.75,-28.54 99.46,-42.74 35.48,-15.2 78.26,-21.26 122.4,-4.83 26.52,9.69 54.95,25.55 78.72,45.87 20.99,17.29 33.71,34.74 39.69,47.59z"/>
  <path class="fil0" d="M5325.59 4020.84c-8.92,16.48 -26.21,27.15 -46.65,18.25l-472.41 -205.02c-18.51,-8.01 -20.78,-29.36 -13.1,-43.42 6.71,-12.36 28.56,-23.93 45.74,-16.47l472.35 205.02c20.53,8.87 20.17,30.49 14.07,41.64z"/>
  <path class="fil0" d="M4993.13 3511.81l-33.71 83.7 429.76 148.65c22.71,7.87 31.39,24.19 23.45,43.88 -8.18,20.38 -26.69,26.54 -48.73,18.95l-429.78 -148.71 -32.75 81.2c-7.65,19.07 -27.41,22.78 -46.79,16.07 -26.08,-9 -34.41,-22.44 -26.69,-41.47l91.74 -227.69c7.45,-18.45 28.98,-20.82 47.66,-14.37 16.72,5.78 32.28,23.79 25.85,39.79z"/>
  <path class="fil0" d="M5271.25 3369.68l214.92 54.5c19.73,4.98 29.31,19.43 22.46,37.96 -6.33,17.35 -27.38,24.06 -43.72,19.92l-216.27 -54.81 -288.53 32.56c-11.02,1.62 -34.85,-6.31 -38.99,-21.31 -5.16,-18.4 5.25,-36.63 32.03,-38.72l236.95 -19.67 -191.56 -130.19c-16.7,-11.21 -8.79,-30.7 3.36,-41.56 13.27,-11.82 34.28,-10.28 44.81,-2.59l224.54 163.9z"/>
  <path class="fil0" d="M3086.7 2961.35c6.77,-54.05 104.69,-617.15 628.15,-594.37 534.62,23.26 675.42,634.9 675.42,634.9 -0.42,-6.76 0.55,-20.34 0,-27.03 -109.76,-1423.46 -1391.38,-1404.86 -1391.38,-1404.86 -803.76,641.63 -243.17,1310.3 -243.17,1310.3l330.98 81.06z"/>
  <path class="fil0" d="M2896.81 2930.54c-6.95,55.38 -107.26,632.51 -643.71,609.12 -547.89,-23.83 -692.19,-650.64 -692.19,-650.64 0.39,6.9 -0.54,20.82 0,27.7 112.48,1458.74 1425.9,1439.75 1425.9,1439.75 823.74,-657.57 249.2,-1342.84 249.2,-1342.84l-339.19 -83.1z"/>
  <path class="fil0" d="M2469.53 2990.06c30.96,-194.6 455.08,-111.42 402.71,-118.19 -13.48,-1.75 94.58,8.45 94.58,8.45 0.01,0 319.15,35.46 484.61,-32.09 0.01,-0.01 -48.56,179.38 -209.39,200.95 -138.45,18.53 -417.06,-81.06 -624.76,-89.51 -96.54,-3.92 -147.75,30.39 -147.75,30.39z"/>
  <path class="fil0" d="M2975.97 4320.68c-753.6,0 -1364.5,-607.45 -1364.5,-1356.8 0,-749.36 610.9,-1356.85 1364.5,-1356.85 753.65,0 1364.51,607.5 1364.51,1356.85 0,749.35 -610.86,1356.8 -1364.51,1356.8zm0 -2768.28c-783.95,0 -1419.46,631.94 -1419.46,1411.47 0,779.51 635.51,1411.45 1419.46,1411.45 783.95,-0.01 1419.48,-631.94 1419.48,-1411.45 0.01,-779.54 -635.53,-1411.47 -1419.48,-1411.47z"/>
  <path class="fil0" d="M2960.91 4704.78c-954.06,0 -1727.4,-773.34 -1727.4,-1727.38 0,-954.01 773.34,-1727.38 1727.4,-1727.38 954.03,0 1727.41,773.37 1727.41,1727.38 0,954.03 -773.37,1727.38 -1727.41,1727.38zm0 -3530.76c-995.99,0 -1803.39,807.4 -1803.39,1803.39 0.01,995.97 807.4,1803.41 1803.39,1803.41 996.01,0 1803.37,-807.44 1803.37,-1803.41 0,-995.99 -807.36,-1803.39 -1803.37,-1803.39z"/>
  <path class="fil0" d="M2947.12 5769.36c-1558.7,0 -2822.27,-1263.55 -2822.27,-2822.24 0,-1558.69 1263.56,-2822.26 2822.27,-2822.26 1558.69,-0.01 2822.24,1263.57 2822.24,2822.26 0,1558.68 -1263.55,2822.24 -2822.24,2822.24zm0 -5769.36c-1627.66,0 -2947.12,1319.47 -2947.12,2947.12 0,1627.63 1319.46,2947.11 2947.12,2947.11 1627.65,-0.01 2947.09,-1319.48 2947.09,-2947.11 0.01,-1627.65 -1319.44,-2947.1 -2947.09,-2947.12z"/>
  <path class="fil0" d="M561.94 2397.18c0,0 -30.52,30.58 -68.86,38.22 -17.19,3.42 -19.21,7.11 -26.54,6.52 -21.53,-1.75 -52.92,-15.39 -47.87,-36.66 4.05,-17.21 7.35,-35.05 22.67,-59.58 11.64,-18.68 87.58,-69.27 126.92,-75.63 25.33,-4.13 27.1,1.45 33.55,0.38 8.82,-1.45 26.84,5.93 27.65,11.51 1.81,12.76 -3.51,23.34 -16.56,40.59 -14.7,19.41 -20.41,27.07 -21.73,34.91 -1.14,6.69 -1.84,10.31 7.03,10.9 8.9,0.54 5.59,0.38 15.26,-11.57 9.22,-11.34 46.38,-26.2 70.29,-31.33 18.53,-3.96 22.68,7.45 25.92,13.16 3.24,5.7 7.16,24.17 -9.51,55.63 -16.67,31.44 -47.26,61.23 -50.16,65.7 -4.58,7.06 -25.34,20.82 -31.92,23.35 -6.62,2.54 -16.62,11.19 -52.62,0.8 -20.88,-6.02 -23.55,-17.58 -23.88,-21.87 -0.64,-7.86 -0.78,-22.99 1.94,-32.6 2.7,-9.63 18.49,-19.62 23.25,-24.56 6.42,-6.65 0.74,-11.44 -0.87,-10.16 -1.62,1.3 -1.62,1.31 -1.62,1.31l-2.35 1z"/>
  <path class="fil0" d="M512.37 2245.48c4.35,2.95 1.04,6.4 14.3,10.61 25.37,7.99 49.03,-2.48 63.96,-5.85 14.93,-3.36 28.47,-24.2 34.2,-44.61 5.73,-20.41 0.88,-22.12 1.8,-32.24 0.42,-4.57 2.01,-2.55 2.46,-14.43 0.43,-11.42 -4.7,-18.68 -7.88,-49.39 -3.06,-30.09 23.13,-57.94 28.28,-61.54 5.13,-3.62 16.35,-4.31 25.7,7.64 5.31,6.75 11.42,6.33 14.54,31 3.14,24.69 -11.23,31.04 -18.28,33.92 -7.08,2.95 -35.08,21.28 -34.04,26.03 1.01,4.76 -9,32.37 3.48,41.79 12.47,9.46 40.61,11.95 53.21,8.84 12.63,-3.08 34.62,-21.43 41.6,-27.13 6.98,-5.68 14.04,-20.68 14.04,-20.68 20.56,-0.78 35.11,36.26 35.11,36.26 22.52,43.22 23.45,50.88 26.02,56.81 7.71,17.81 3.86,7.21 8.94,23.75 4.61,15.03 9.84,16.72 26.33,28.71 16.48,11.96 53.98,23.17 51.44,27.36 -12.25,20.21 -27.01,50.48 -29.73,54.96 -2.72,4.5 -4.06,18.82 -16.85,22.4 -21.52,6.05 -37.21,-25.87 -37.21,-25.87 -5.53,-8.94 -5.74,-13.4 -4.81,-15.96 0.92,-2.59 -4.43,-22.06 -17.52,-25.34 -20.69,-5.16 -56.51,9.91 -62.95,19.6 -6.44,9.74 -12.26,41.96 -17.33,53.99 -5.07,12.04 -16.13,19.37 -24.63,37.83 -8.5,18.49 -32.59,43.72 -36.68,51.02 -4.1,7.3 3.28,20.17 3.28,20.17 0,-0.01 11.9,13.14 22.72,12.93 11.56,-0.19 25.38,-0.84 30.24,-2.92 12.26,-5.28 5.59,-3.81 18.18,-11.32 14.39,-8.61 36.55,-32.85 40.67,-36.78 5.88,-5.57 16.92,-9.28 21.83,-5.81 7.99,5.68 9.07,20.28 5.34,39.73 -3.73,19.45 -25.34,36.09 -7.29,84.72 6.47,17.46 22.82,19.24 38.6,24.1 11.01,3.4 35.22,-20.76 42.62,-36.05 17.38,-35.93 54.31,-163.9 59.96,-181.01 5.65,-17.15 36.15,-79.21 45.79,-90.27 11.22,-12.91 8.7,-14.36 39.51,-54.72 17.68,-23.18 47.9,-84 68.49,-106.15 13.65,-14.66 18.12,-21.15 28.68,-38.38 8.78,-14.37 11.32,-16.17 21.76,-29.93 5.93,-7.83 15.08,-11.59 26.88,-31.9 6.9,-11.97 3.67,-15.72 1.14,-28.33 -2.72,-13.57 -7.72,-14.03 -8.91,-25.98 -1.15,-11.93 -8.37,-41.92 -31.69,-54.72 -23.31,-12.81 -38.12,-14.22 -47.43,-10.71 -0.29,0.1 -5.22,2.4 -5.45,2.55 -5.23,3.49 -7.7,3.2 -10.14,12.75 -2.52,10.05 -1.11,12.57 -3.91,25.97 -3.54,17.08 -11.7,32.5 -13.71,38.03 -5.81,16.02 -6.37,27.48 -8.99,35.59 -5.42,16.82 -59,141.71 -58.73,157.69 0.16,9.21 -6.61,22.82 -10,21.58 -3.4,-1.22 -12.11,1.66 -18.27,0.53 -6.16,-1.14 -10.58,-19.16 -10.03,-28.29 0.54,-9.11 -1.9,-28.08 -7.57,-48.75 -5.66,-20.68 -21.63,-34.11 -21.63,-34.11 -7.19,-5.87 -32.55,-26.56 -41.4,-30.83 -8.85,-4.32 -39.62,-13.23 -45.71,-17.6 -6.05,-4.42 -49.6,-15.77 -49.6,-15.77 -22.64,-7.09 -25.75,-19.71 -26.71,-26.1 -1,-6.4 -0.45,-10.12 -3.73,-20.99 -4.46,-14.53 -6,-22.86 -10.55,-39.47 -3.95,-14.33 -6.33,-34.09 -5.82,-47.57 0.52,-13.51 15.39,-34.98 13.75,-41.05 -1.66,-6.06 -1.78,-7.21 -7.07,-10.77 -5.26,-3.55 -35.41,-17.16 -59.89,-16.17 -24.45,1 -54.44,23.47 -62.78,34.28 -2.69,3.47 -11.73,28.56 -23.65,43.66 -10.11,12.78 -17.83,21.34 -23.14,41.85 -13.9,53.56 -49.5,167.22 -49.37,188.09 0.1,17.79 -7.91,41.54 -14.4,47.38 0,-0.01 -6.65,4.71 -8.13,11.84 -1.48,7.12 2.11,13.92 6.87,18.93 4.78,5.03 20.31,9.46 20.31,9.46l1.58 1.17z"/>
  <path class="fil0" d="M1347.81 1305.2c0,0 -3.12,7.96 -14.12,19.77 -15.04,16.19 -90.33,73.08 -100.6,83.9 -10.28,10.83 -144.87,147.72 -158.18,162.72 -13.3,14.99 -31.98,49.97 -41.75,63.31 -9.77,13.31 -17.38,38.15 -23.75,47.63 -6.33,9.48 -11.97,12.75 -11.97,12.75 0,-0.01 -44.28,-22.12 -35.53,-58.34 8.77,-36.22 16.66,-56.7 24.1,-72.09 7.48,-15.36 31.95,-50.67 41.12,-67.96 4.76,-9.03 43.6,-49.55 84.01,-93.15 43.88,-47.28 89.74,-97.71 99.71,-105.33 6.24,-4.78 17.87,-8.29 27.79,-13.23 9.9,-4.99 11.73,-13.76 45.07,-10.77 31.07,2.77 36.34,6.67 43.62,11.51 10.77,7.11 22.68,7.49 20.47,19.28zm152.74 84.89c-12.34,-37.02 -12.63,-44.52 -36.04,-75.46 -12.64,-16.72 -50.41,-51.62 -63.48,-63.22 -13.05,-11.59 -32.34,-19.05 -45.92,-26.98 -17.49,-10.2 -47.97,-41.01 -64.7,-45.09 -57.63,-14.03 -134.66,46.27 -147.42,55.88 -11.82,8.95 -38.27,41.83 -48.75,49.02 -10.5,7.17 -29.95,25.28 -31.24,25.89 -3.18,1.51 -44.75,-6.88 -56.28,-3.2 -17.4,5.56 -46.57,28.73 -57.07,40.22 -7.29,7.94 -6.65,2.94 -18.67,30.68 -11.66,26.79 17.77,43.96 21.69,48.81 3.95,4.89 -8.43,17.27 -8.43,17.27 0,-0.01 -5.41,10.3 -9.88,17.35 -10.52,16.53 -17.91,29.47 -32.92,46.38 -15.02,16.91 -12.29,19.14 -26.88,38.01 -9.69,12.55 -20.93,33.73 -31.16,53.69 -7.63,14.91 -16.59,29.53 -13.7,37.12 5.32,13.88 11.47,14.13 31.8,40.57 5.12,6.66 15.13,15.83 25.75,26.75 12.23,12.55 31.78,32.98 57.69,55.96 2.83,2.5 42.98,65.24 84.19,82.57 10.08,4.24 13.56,5.01 30.45,12.94 13.23,6.18 36.46,20.76 49.95,-4.79 5.81,-10.98 -29.87,-40.28 -29.87,-40.28 -70.84,-65.88 -60.52,-39.98 -62.61,-64.99 -0.23,-2.93 18.89,-2.37 19.26,-2.35 5.13,0.42 11.57,2.48 25.28,8.71 13.93,6.28 39.63,-5.83 54.02,-23.89 12.17,-15.27 15.98,-17.56 21.72,-41.56 1.53,-6.44 10.36,-26.88 22.17,-43.56 15.25,-21.56 34.08,-40.5 41.58,-43.49 2.85,-1.14 14.13,10.92 14.13,10.92 40.39,32.88 61.92,51.75 75.76,69.76 24.76,32.22 13.31,45.54 10.37,49.53 -1.6,2.12 -17.32,2.69 -30.07,8.58 -9.53,4.42 -13.94,9.82 -13.83,10.65 1.31,8.64 4.74,19.54 12.73,25.97 9.32,7.51 19.88,10.42 25.6,13.99 0.07,0.06 11.41,8.33 16.88,8.6 3.53,0.17 22.94,3.49 40.79,2.06 15.23,-1.2 28.58,-6.81 38.09,-10.39 21.13,-7.98 25.51,-33.06 22.61,-50.52 -4.55,-27.38 -14.98,-36.76 -21.41,-51.53 -6.03,-13.88 -22.37,-34.34 -42.77,-55.16 -42.21,-42.99 -99.1,-89.41 -99.48,-95.84 -0.78,-13.04 20.88,-28.18 29.78,-38.17 14.37,-16.24 37.35,-32.83 75.6,-51.1 21.4,-10.27 33.85,-42.82 31.45,-58.7 -2.39,-15.86 -3.18,-41.31 6.04,-45.49 9.22,-4.21 23.05,8.08 23.05,8.08 25.93,21.07 48.16,36.99 63.79,43.78 17.09,7.42 21.99,0.93 20.38,-3.95z"/>
  <path class="fil0" d="M1582.28 1062.81c0,0 -7.82,14.37 -17.79,17.86 -9.99,3.46 -38.13,9.65 -47.38,0.76 -10.73,-10.27 -26.85,-35.9 -34.09,-44.86 -7.24,-8.94 -15.18,-15.29 -16.59,-17.77 -1.4,-2.46 -22.37,-24.13 8.65,-57.04 21.96,-23.3 192.51,-105.18 205.5,-114.68 6.53,-4.8 156.76,-95.26 177.79,-108.23 20.93,-12.94 62.99,-26.96 75.31,-26.31 10.77,0.54 23.91,16.34 28.48,22.44 4.54,6.12 17.18,21.77 22.06,50.54 1.49,8.85 -0.4,12.95 -5.39,16.91 -7.11,5.63 -16.74,17.9 -40.65,35.21 -13.67,9.94 -30.77,23.3 -49.26,33.88 -41.74,23.83 -87.13,43.57 -92.11,49.4 -7.21,8.43 -0.59,17.2 2.56,20.84 3.15,3.65 54.39,110.48 72.6,123.51 8.62,6.14 17.29,6.52 20.1,3.85 0.01,-0.01 17.63,-9.87 27.22,-14.33 9.59,-4.46 70.59,-19.3 93.63,-32.32 23.03,-13.06 94.77,-62.9 102,-65.85 8.33,-3.48 16.49,0.4 20.54,5.68 4.1,5.3 9.93,10.81 14.73,13.53 4.79,2.69 23.64,38.15 24.94,55.88 1.37,17.71 -8.1,57.39 -29.3,73.73 -21.18,16.34 -31.93,11.66 -46.65,13.8 -5.45,0.78 -44.06,7.19 -96.11,25.05 -35.31,12.11 -77.6,31.57 -115.53,55.06 -28.08,17.41 -42.17,34.51 -53.74,46.16 -13.46,13.59 -23.93,19.33 -32.01,27.91 -15.29,16.25 -48.54,64.04 -75.52,79.71 -38.86,22.52 -58.89,24.6 -81.84,22.4 -22.99,-2.19 -53.49,-59.92 -40.43,-94.47 13.03,-34.55 16.76,-43.51 43.52,-59.39 10.84,-6.46 63.63,-39.29 71.02,-43.45 7.42,-4.23 42.46,-26.77 61.47,-40.23 7.07,-5.03 9.49,-9.44 10.54,-13.04 0.84,-2.83 4.31,-6.08 2.15,-11.55 -4.86,-12.45 -59.96,-104.07 -60.76,-111.22 -0.78,-7.15 -16.53,-36.59 -28.26,-29.44 -18.59,11.29 -88.72,59.71 -101,71.09 -10.25,9.48 -13.32,11.12 -13.32,11.12l-7.09 7.86z"/>
  <path class="fil0" d="M2716.42 562.86c0.25,6.71 -15.76,25.19 -28.27,27.13 -10.18,1.57 -23.17,-1.01 -29.75,0.36 -4.72,1.03 -52.31,5.26 -58.47,5.95 -6.16,0.65 -21.64,-0.04 -23.51,-12.83 -1.07,-7.32 2.63,-19.96 2.63,-19.96 3.37,-4.23 24.06,-12.74 42.66,-18.63 18.59,-5.87 49.71,-6.9 60.31,-6.61 16.22,0.4 21.71,-3.83 31.97,10.92 3.43,4.92 2.21,6.96 2.44,13.67zm-209.86 58.57c-6.92,2.65 -36.11,3.94 -43.7,4.78 -7.61,0.83 -26.04,8.14 -31.87,3 -2.75,-2.4 -1.91,-13.9 -3.51,-16.47 -6.21,-10.12 -14.34,-16.91 -14.89,-21.66 -0.48,-4.75 4.02,-18.44 8.08,-20.82 4.08,-2.36 27.34,0.13 34.26,-2.55 6.92,-2.71 15.24,-7.36 19.03,-7.78 3.83,-0.42 8.42,-5.56 13.19,-10.39 4.76,-4.86 8.01,-5.7 8.01,-5.7 0.01,0 7.07,7.38 7.89,14.99 0.82,7.59 7.26,17.94 10.2,22.93 2.95,4.94 8.81,18.71 7.47,24.16 -1.35,5.43 -7.24,12.81 -14.16,15.49zm304.33 -135.25c-4.84,-9.06 -20.22,-35.26 -34.58,-34.66 -14.34,0.63 -22.57,4.39 -31.13,5.34 -4.42,0.48 -47.37,9.49 -90.14,15.17 -39.85,5.28 -79.69,7.27 -85.18,7.89 -11.4,1.24 -16.97,-5.83 -34.2,3.74 -17.22,9.56 -29.91,25.38 -33.78,24.84 -3.93,-0.55 -8.77,-0.95 -8.77,-0.95 0,0 -19.54,-15.54 -27.67,-15.71 -7.24,-0.19 -11.36,1.71 -27.93,-0.34 -9,-1.09 -37.54,-0.67 -51.49,-4.92 -13.92,-4.25 -88.75,1.56 -106.17,4.9 -23.73,4.56 -64.86,30.83 -64.36,61.85 0.04,2.48 2.5,4.69 3.03,7.02 6.24,28.07 22.57,46.21 29.06,49.05 16.01,6.96 55.99,-3.64 72.09,-8.84 17.75,-5.78 37.04,-4.08 37.04,-4.08 0,-0.01 11.86,28.06 1.11,36.41 -11.53,8.95 -95.55,14.32 -104.51,20.1 -8.98,5.76 -5.99,4.57 -15.54,12.35 -40.34,32.83 -28.62,51.19 -28.1,54.26 0.84,4.94 9.42,36.26 14.14,41.41 8.75,9.59 28.79,17.03 106.31,-21.27 36.71,-18.15 42.38,-6.92 44.1,-5.3 3.22,3 1.79,11.82 -5.09,19.31 -6.88,7.46 -22.02,36.04 -31.11,49.53 -9.1,13.47 -53.25,31.8 -60.72,42.23 -7.53,10.42 -8.5,20.4 -9.21,38.97 -0.17,4.31 14.09,46.65 28.16,46.42 19.98,-0.32 48.96,-0.57 54.11,-5.93 5.19,-5.38 38.93,-39.83 43.13,-36.44 4.21,3.38 4.29,21.64 4.82,26.39 0.38,3.42 3.24,63.6 16.15,99.17 4.88,13.5 6.71,21.7 16.07,23.72 17.12,3.7 19.37,3.93 19.39,3.8 1.35,0.72 11.48,5.66 10.73,-9.53 -0.8,-16.26 -5.17,-14.21 -2.59,-25.57 2.72,-11.66 7.49,-16.32 5.75,-24.76 -4.61,-21.93 -17.77,-140.34 -14.64,-146.44 3.2,-6.1 18.36,-0.26 25.34,3 8.75,4.08 6.41,6.04 14.34,8.05 7.89,2.02 28.54,7.2 35.29,-14.7 1.79,-5.72 -1.66,-10.03 -4.67,-16.53 -5.96,-12.97 -13.65,-20.86 -15.46,-23.3 -3.95,-5.35 -7.05,-6.04 -17.41,-14.45 -5.24,-4.21 -13.94,-8.56 -23.43,-16.17 -9.47,-7.64 -31.91,-20.28 -26.98,-44.63 2.16,-10.81 15.73,-10.03 24.85,-9.93 27.91,0.31 22.38,0.65 26.33,-0.97 14.74,-5.93 26.4,-25.72 29.07,-45.95 1.7,-12.64 4.63,-7.87 7.15,-5.12 5.07,5.53 21.07,25.58 49.82,24.82 32.54,-0.84 28.94,-7.99 42.86,-12.39 13.94,-4.42 56.18,-13.84 74.32,-14.87 18.15,-1.03 46.5,0.36 52.01,1.03 9.82,1.17 12.3,4.58 23.18,-1.41 10.87,-6 2.75,-0.86 11.55,-6.23 6.22,-3.8 14.7,-39.45 13.54,-49.93 -2.21,-20.21 6.27,-67.61 13.88,-77.1 7.61,-9.49 10.89,-23.29 6.08,-32.4z"/>
  <path class="fil0" d="M2529.22 779.96c0,0 -14.58,-4.6 -17.69,-12.22 -13.25,-32.44 -1.91,-33.11 2.92,-40.7 12.37,-19.33 15.44,-14.72 31.87,-23.47 11.61,-6.18 39.84,-9.17 56.51,-10.51 16.68,-1.35 126.97,-11.06 154,-14.68 16.04,-2.17 45.55,-14.15 55.96,-12.95 12.66,1.45 27.38,8.14 27.82,13.12 1.25,13.8 -7.82,30.16 -9.57,35.67 -3.68,11.54 -20.42,28.51 -36.13,29.88 -21.41,1.87 -67.11,1.6 -76.8,5.05 -9.72,3.47 -22.36,15.46 -21.2,21.58 0.97,5.17 10.58,11.57 8.89,11.02 -5.34,-1.77 14.68,0.3 19.69,-0.23 10.94,-1.2 15.65,-1.45 24.19,-2.37 11.66,-1.26 47.11,-4.94 54.07,-2.84 6.94,2.12 13.75,-1.51 15.33,12.74 1.54,14.26 4.73,34.58 -0.59,38.53 -5.34,3.93 -4.39,3.83 -13.1,7.68 -8.73,3.85 -2.16,2.16 -11.19,3.15 -9.04,0.97 -71.38,2.04 -79.71,4.86 -8.37,2.86 -8.58,5.3 -6.86,12.3 1.75,7.02 8.58,21.16 16.64,20.27 4.04,-0.44 31.23,-3.83 58.07,-9.71 26.82,-5.9 53.21,-14.24 60.27,-15.73 14.09,-2.99 22.06,-4.82 39.52,-7.7 17.48,-2.86 25.58,-8.08 29.99,-2.8 4.42,5.29 4.29,8.66 5.4,14.3 1.11,5.66 6.65,33.13 -4.04,55.25 -6.1,12.61 -3.72,10.01 -7.97,19.6 -4.2,9.59 -9.69,20.78 -16.62,28.25 -6.83,7.48 -12.45,13.4 -25.05,16.7 -12.61,3.3 -44.29,-7.2 -66.04,-9.78 -24.77,-2.99 -62.36,0.51 -77.94,2.95 -19.85,3.14 -92.62,16.3 -100.36,18.84 -11.52,3.8 -51.07,16.03 -59.16,21.24 -8.08,5.21 -31.23,15.97 -36.66,16.53 -16.63,1.74 -22.63,3.89 -29.21,-12.22 -6.54,-16.09 -14.03,-24.52 -14.45,-35.42 -0.38,-11.06 11.53,-48.27 22.11,-57.23 8.79,-7.4 7.97,-10.47 24.06,-12.7 16.13,-2.26 60.55,-9.03 72.39,-10.83 11.82,-1.77 35.05,-4.33 37.94,-8.96 2.86,-4.63 5.66,-14.07 4.98,-20.25 -0.7,-6.15 1.24,-10.71 -5.01,-10.52 -6.2,0.21 -37.82,4.23 -42.1,4.71 -4.27,0.46 -2.38,1.28 -15.48,4.98 -22.36,6.29 -39.9,2.46 -46.75,-7.85 -6.92,-10.28 -4.82,-14.55 -2.3,-20.76 3.14,-7.74 6.65,-17.22 19.33,-19.1 11.95,-1.79 27.34,-9.23 47.28,-11.44 19.98,-2.17 33.8,-3.2 34.57,-13.4 0.82,-10.18 2.59,-24.78 -5.91,-27.7 -8.47,-2.93 -24.86,-1.41 -38.61,2.77 -12.72,3.89 -13.38,5.32 -29.3,8.98 -15.94,3.67 -28.01,3.09 -28.01,3.09z"/>
  <path class="fil0" d="M3547.67 755.44c2.06,1.51 10.13,7.29 10.34,10.81 0.23,3.55 -3.43,6.36 -5.85,9.72 -2.73,3.8 -4.63,8.08 -7.04,11 -2.44,2.92 -16.97,21.87 -20.19,24.97 -3.3,3.06 -9.53,4.39 -9.53,4.39 -8.6,4.24 -13.1,4.48 -19.89,3.18 -6.75,-1.35 -11.59,-5.34 -14.18,-9.91 -2.61,-4.57 -20.73,-15.38 -22.96,-23.76 -2.23,-8.38 -0.34,-16.32 1.13,-20.42 1.51,-4.1 16.32,-21.32 19.29,-25.07 2.99,-3.77 6.06,-2.5 6.06,-2.5 0,0 30.79,2.42 38.34,7.26 6.92,4.41 11.19,4.4 15.72,4.42 4.56,0.02 6.67,4.38 8.77,5.93zm-193.33 -33.14c-0.06,4.69 14.74,36.74 17.01,50.14 2.02,11.76 40.25,58.22 50.54,65.88 10.31,7.67 14.52,25.28 16.36,28.5 1.6,2.88 -4.75,11.04 -7.09,11.82 -1.68,0.52 -15.94,-0.61 -29.99,0.7 -11.36,1.09 -27.76,3.03 -30.14,2.86 -17.54,-1.16 -22.5,-1.91 -32.77,-2.75 -10.3,-0.84 -47.34,-0.63 -55.92,-0.61 -11.21,0.08 -31.48,-11.06 -39.39,-12.94 -7.95,-1.87 2.04,-22.06 3.93,-27.91 1.91,-5.83 14.53,-75.76 26.46,-81.88 11.92,-6.1 18.67,0.4 25,-0.88 8.19,-1.62 8.69,-6.46 17.41,-11.61 7.95,-4.7 10.96,-7.55 15.48,-13.31 4.48,-5.77 9.9,-14.73 3.45,-25.18 -7.84,-12.66 -27.59,-26.98 -31.98,-30.64 -4.38,-3.64 -9.34,-4.82 -15.61,-9.44 -6.25,-4.61 -12.6,-28.01 5.41,-38.51 13,-7.57 14.87,-5.16 17.31,-4.27 4.73,1.68 30.48,15.64 43.09,13.37 12.6,-2.27 22.86,-22.04 23.96,-31.21 1.11,-9.19 4.41,-12.07 4.41,-12.07 0.01,0 3.96,-1.16 4.86,1.68 0.91,2.82 15,38.53 82.09,38.61 0,0 7.95,2.5 13.1,4.78 5.17,2.25 9.74,0.7 13.19,10.43 3.49,9.74 1.43,18.8 -0.3,23.53 -2.31,6.48 -21.74,13.9 -34.76,18.53 -6.69,2.42 -13.67,6.69 -17.5,11.46 -3.87,4.82 -5.7,11.91 -10.43,12.9 -9.35,1.99 -28.33,-1.87 -29.76,-8.6 -3.95,-18.53 -21.49,-42.27 -27.3,-42.07 -5.8,0.21 -18.31,-0.13 -20.54,27.13 -2.25,27.26 0.5,26.83 0.42,31.57zm386.16 -103.78c-5.62,-11.82 -12.75,-22.23 -34.41,-29.86 -17.31,-6.12 -82.82,-18.97 -42.08,-9.38 8.94,2.08 -71.72,-15.86 -76.85,-24.14 -0.59,-0.91 -1.62,-6.55 -1.9,-7.54 -4.44,-16.11 0.19,-21.18 -0.63,-30.24 -0.86,-9.66 0.49,-17.88 -1.11,-22.57 -3.68,-11.05 -10.49,-22.06 -18.4,-27.07 -9.51,-6 -30.73,-0.23 -33.57,7.46 -2.9,7.71 -3.83,31.99 -3.76,36.2 0.04,4.22 -4.04,17.14 -5.66,24.08 -1.64,6.96 -1.96,25.11 -10.16,24.23 -8.16,-0.89 -74.14,-24.82 -95.38,-19.33 -21.22,5.48 -34.47,12.85 -43.26,5.53 -8.73,-7.3 -16.22,-11.15 -27.82,-28.56 -11.63,-17.41 -6.31,-44.46 -2.21,-52.96 4.08,-8.46 0.59,-29.19 0.59,-29.19 0,-0.01 -9.23,-5.32 -14.74,-8.73 -5.47,-3.39 -27.05,-5.3 -40.49,7.26 -13.41,12.55 -15.02,23.7 -16.41,29.65 -1.42,5.97 -10.68,17.07 -18.11,17.41 -7.4,0.36 -37.35,-10.54 -56.11,-13.93 -15.1,-2.71 -39.6,-0.94 -48.56,-3.05 -8.94,-2.11 -28.51,-3.58 -36,10.39 -7.47,13.96 -8.71,32.56 -14.03,41.79 -5.3,9.21 -25.47,59.04 -5.16,75.3 17.94,14.36 35.19,15.29 47.97,15.86 14.6,0.64 35.23,4.79 43.18,6.67 7.95,1.89 25.05,4.86 40.38,2.16 15.31,-2.67 3.14,31.15 3.14,31.15 0,0 -10.67,14.26 -52.14,7.64 -41.41,-6.61 -37.77,-0.17 -51.65,-1.69 -20.59,-2.23 -42.73,8.52 -51.04,19.12 -8.7,11.15 -25.36,27.89 -26.79,51.68 -1.41,23.76 14.76,30.73 25.3,39.5 4.88,4.06 16.93,11.42 34.85,9.25 20.74,-2.5 48.31,-14.3 64.3,-16.28 42.4,-5.31 29.02,15.24 23.21,30.6 -8.39,22.14 -10.56,26.88 -41.68,38.76 -26.27,10.07 -32.22,12.33 -44,13.4 -16.4,1.47 -25.13,-10.47 -39.16,-4.33 -14.02,6.14 -9.94,97.33 0.09,116.74 7.21,13.94 17.1,19.6 22.96,23.83 9,6.46 11.25,12.56 32.66,14.43 10.43,0.91 16.97,-1.68 24.63,-8.18 4.21,-3.52 11.23,-10.45 17.6,-16.51 16.76,-15.86 20.68,-23.43 27.61,-33.12 8.2,-11.39 18.05,-20.55 25.38,-28.73 10.1,-11.26 10.2,-12.33 14.93,-10.16 2.59,1.17 1.39,23.64 5.66,45.7 3.54,18.37 11.63,35.88 21.58,46.33 21.83,22.96 53.05,24.02 79.82,22.99 29.59,-1.11 59.55,-22.36 55.67,-20.06 0.01,-0.01 62.93,-47.05 70.1,-46.4 2.34,0.21 7.49,19.23 14.56,40.59 1.71,5.09 5.44,15.33 7.38,20.48 11.17,30.22 31.88,53.99 40.84,77.44 7,18.31 13.96,28.5 43.51,33.3 33.63,5.46 43.22,-5.56 51.13,-7.87 7.91,-2.34 73.95,-48.9 82.84,-98.53 3.36,-18.83 -12.47,-10.35 -20.29,-16.53 -15.33,-12.11 -41.02,-17.81 -54.22,-24.16 -22.92,-10.99 -61.75,-46.19 -65.51,-49.7 -8.25,-7.57 -17.73,-21.12 -23.75,-28.28 -4.75,-5.69 -2.9,-14.3 1.75,-16.35 3.18,-1.39 46.79,-36.87 78.34,-65.42 15.02,-13.61 31.4,-20.36 35.29,-25.24 11.91,-15 13.44,-44.08 5.34,-55.35 -8.18,-11.36 -26.86,-24.2 -43.62,-22.51 -20.15,2.06 -27.02,-4.79 -50.63,-10.68 -19.35,-4.88 -28.94,-3.15 -26.12,-15.08 2.82,-11.93 4.58,-28.29 11.67,-31.84 7.17,-3.56 120.93,37.46 153.51,32.57 32.62,-4.9 39.81,-34.21 39.44,-41.64 -0.34,-7.42 -4.21,-6.5 -9.8,-18.3z"/>
  <path class="fil0" d="M4278.79 773.55c0,0 10.39,4.42 12.87,12.62 2.46,8.2 9.02,9.15 -1.73,31.97 -4.62,9.8 -11.27,15.9 -14.51,22.65 -3.21,6.77 -4.98,12.01 11.8,22.95 7.72,5.07 25.78,16.51 34.95,24.56 9.15,8.07 9.72,14.87 15.88,15.54 6.18,0.65 25.76,-18.64 29.82,-21.56 4.04,-2.9 4.32,-12.72 13.35,-11.36 9.05,1.37 15.5,2.25 23.69,11.86 8.14,9.63 30.83,36.3 33.8,43.7 2.99,7.43 -9.43,18.21 -5.76,34.89 3.66,16.65 32.1,36.13 35.63,45.91 5.16,14.3 16.93,16.32 17,40.61 0.02,15.43 -13.02,36.78 -22.86,42.66 -7.23,4.29 -32.16,-0.57 -46.6,-8.52 -13.5,-7.43 -95.51,-77.34 -123.71,-98.7 -28.18,-21.32 -40,-37.27 -58.03,-43.58 -4.86,-1.75 -13.48,-10.58 -24.29,10.14 -6.18,11.77 10.2,116.66 80.09,205.43 0,-0.01 33.8,31.55 52.52,40.19 18.68,8.66 20.28,11.37 33,16.91 11.89,5.15 23.01,5.72 22.59,9.84 -0.44,4.14 -38.89,50.44 -60.32,64.99 -13.31,9.06 -17.64,5.23 -32.18,12.45 -14.55,7.23 -47.2,6.29 -60.24,1.14 -30.12,-11.91 -36.68,-28.73 -36.3,-27.61 5.75,16.88 -18.19,-64.92 -24.79,-100.68 -7.17,-38.76 -21.31,-118.28 -28.69,-127.43 -7.36,-9.13 -10.66,-5.7 -17.43,3.17 -6.77,8.88 -24.93,30.33 -41.64,58.2 -16.7,27.84 -51.61,69.95 -58.64,80.07 -7.42,10.7 -15.27,26.88 -27.11,40.24 -11.86,13.32 -13.61,22.02 -29.72,28.24 -16.08,6.22 -14.49,4.38 -17.6,0.95 -5.34,-5.85 -11.94,-15.39 -4.92,-28.46 11.44,-21.33 3.79,-16.32 17.03,-38.67 16.96,-28.78 46.04,-68.57 55.55,-83.43 9.49,-14.87 55.9,-66.71 59.27,-78.87 3.36,-12.16 12.57,-23.16 0.63,-21.65 -3.53,0.44 -36.59,10.33 -70.54,15.5 -35.25,5.38 -71.44,6.04 -80.67,5.66 -33.25,-1.45 -98.37,-13.33 -115.91,-28.98 -17.52,-15.61 -24.71,-23.13 -27.53,-39.6 -1.89,-11.26 12.35,-28.07 12.83,-29.19 4.92,-11.15 7.83,-23.73 23.64,-31.23 21.1,-10.03 22.15,-9.53 54.85,2.04 26.96,9.53 37.6,15.25 63.28,25.07 22.67,8.64 27.38,17.5 94.79,15.44 23.01,-0.7 31.27,-7.53 45.05,-11.91 12.58,-4 30.52,0.52 35.93,-7.89 2.48,-3.93 6.47,-10.18 14.97,-11.37 11.02,-1.54 8.23,-14.56 -3.51,-22.06 -18,-11.51 -71.59,-41.37 -92.77,-46.12 -21.2,-4.76 -63.39,-16.31 -88.14,-31 -28.96,-17.29 -15.64,-38.09 -13.99,-45.85 0.91,-4.13 6.21,-13.75 11.71,-24.4 4.84,-9.38 9.04,-19.96 17.9,-26.96 26.65,-21.03 48.21,3.15 61.96,6.9 30.02,8.18 60.99,26.92 116.79,63.68 20.93,13.8 32.87,24.36 48.96,30.24 12.89,4.69 15.64,9.99 23.7,0.82 8.06,-9.17 9.34,-9.44 14.08,-18.53 4.73,-9.11 15.37,-17.41 23.74,-19.2 9.66,-2.09 16.51,-2.42 16.51,-2.42z"/>
  <path class="fil0" d="M4947.78 1363.31c0,0 -13.49,-6.18 -19.14,-8.62 -5.59,-2.42 -16.38,-0.55 -31.79,12.35 -14.77,12.38 -17.48,17.06 -28.71,26.43 -11.18,9.4 -23.83,15.21 -30.98,13.29 -8.85,-2.38 -42.36,-47.24 -52.22,-60.43 -9.82,-13.19 -15.75,-22.58 -37.31,-42.65 -22.08,-20.53 -60.51,-42.32 -79.35,-42.04 -18.82,0.29 -54.58,23.1 -64.23,44.3 -9.63,21.21 -5.07,13.16 -8.56,19.69 -4.75,8.89 -12.95,25.76 33.46,58.4 46.44,32.66 70.79,43.24 101.54,77.1 26.39,29.09 24.27,26.14 19.29,31.53 -2,2.15 -21.79,10.27 -47.82,12.66 -28.79,2.63 -85.58,3.09 -101.61,-3.15 -19.41,-7.55 -57.29,-27.11 -79.31,-42 -22.04,-14.94 -67.77,-50.54 -85.81,-49.76 -20.69,0.9 -71.25,18.46 -79.02,20.93 -10.7,3.38 -12.95,6.25 -26.12,16.3 -15.75,12.01 -7.11,26.77 2.78,42.19 9.69,15.12 26.6,16.89 42.38,29.7 11.91,9.63 53.44,50.54 114.2,77.98 26.17,11.78 41.81,16.22 73,10.75 29.42,-5.16 135.55,-41.31 148.21,-39.88 8.35,0.92 -9.99,32.2 -17.69,45.77 -4.33,7.69 -20.8,48.43 -36.26,91.21 -11.99,33.08 -9.78,71.15 -11.46,96.6 -2.84,42.9 26.96,87.7 63.97,120.47 35.28,31.25 65.01,20.68 84.04,17.83 19.08,-2.86 25.45,-5.38 30.85,-15.12 3.75,-6.71 6.84,-11.08 11.49,-26.9 4.63,-15.8 -1.58,-30.27 -24.67,-55.04 -19.98,-21.37 -56.89,-60.8 -65.54,-88.19 -8.6,-27.35 6.48,-124.64 15.29,-158.24 7.95,-30.44 17.52,-44.48 23.72,-48.5 6.21,-3.98 5.97,-8.54 17.08,-2.35 11.12,6.15 38.88,49.67 64.9,80.32 18.49,21.68 21.64,41.48 30.71,56.53 9.07,15.08 13.69,29.1 31.78,29.42 18.15,0.29 24.34,-3.68 34.26,-13.21 9.93,-9.49 14.43,-24.02 24.61,-36.09 10.13,-12.1 14.64,-33.74 5.57,-55.96 -9.06,-22.2 -34.28,-45.2 -52.37,-68.18 -19.26,-24.53 -53.48,-48.19 -53.97,-64.45 -0.52,-16.28 7.17,-22.71 26.1,-38.57 18.91,-15.86 31.25,-20.75 38.27,-36.84 8.92,-20.62 -3.57,-35.57 -3.57,-35.57z"/>
  <path class="fil0" d="M5204.62 1959.66c0,0 0.92,4.73 6.31,10.92 5.39,6.16 13.06,8.19 16.32,5.79 3.22,-2.38 10.26,-7.47 16.42,-14.3 6.16,-6.86 29.8,-49.3 36.55,-52.02 22.85,-9.1 52.98,4.95 55.97,10.83 2.99,5.88 13.75,21.18 13.52,29.47 -0.23,8.28 -5.53,30.62 -7.42,36.4 -3.47,10.66 -23.41,30.92 -28.73,33.93 -13.23,7.46 -24.99,17.91 -30.89,22.37 -3.51,2.69 -16.49,8.41 -15.82,15.5 0.65,7.09 3.83,15.9 5.48,22.42 1.52,5.91 0.57,17.33 0.72,17.43 5.64,5.28 8.1,14.45 21.03,6.36 12.96,-8.06 33.76,-32.75 46.69,-43.79 12.91,-11.04 13.16,-17.84 22.9,-22.06 9.74,-4.21 25.74,1.01 36.7,6.54 4.38,2.21 10.24,22.61 11.44,29.78 1.87,10.91 4.58,22.12 -2.71,32.52 -7.34,10.41 -36.03,44.33 -43.96,49.12 -7.99,4.78 -26.48,20.89 -30.56,30.37 -4.06,9.48 -9.03,20.17 4.67,29.53 13.65,9.35 50.64,16.47 68.71,19.89 13.84,2.61 75.12,0.32 91.51,19.44 9.53,11.08 18.79,22.31 15.02,32.41 -3.76,10.07 -16.36,29.06 -26.06,36.24 -5.48,4.04 -21.83,8.14 -33.02,9.43 -11.21,1.26 -19.79,6.35 -32.54,1.72 -12.72,-4.67 -18.34,-5.51 -19.2,0.13 -0.83,5.61 5.87,33.34 33.45,81.62 11.1,19.54 3.99,22.46 4.33,30.43 0.23,4.41 -5.47,25.81 -23.36,41.54 -14.19,12.57 -42.92,22.36 -47.95,26.67 -14.98,12.82 -48.9,30.29 -57.4,33.69 -13.85,5.55 -19.3,9.44 -40.67,16.26 -7.17,2.29 -29.19,8.2 -35.72,9.28 -15.22,2.54 -36.87,12.09 -49.63,4.5 -12.76,-7.57 -12.79,-9.8 -11.61,-12.64 3.15,-7.64 10.13,-15.23 15.5,-21.98 10.41,-13.08 104.19,-60.49 115.06,-71.19 10.87,-10.73 26.27,-26.36 31.97,-31.87 5.75,-5.51 10.39,-18.28 2.21,-44.52 -3.74,-11.97 -23.77,-66.67 -49.11,-124.83 -30.15,-69.23 -68.31,-141.73 -79.1,-164.07 -13.81,-28.58 -14.89,-37.39 -24.16,-51.84 -10.77,-16.79 -35.44,-52.08 -43.5,-63.56 -8.05,-11.46 -60.06,-8.73 -98.8,-9.02 -23.72,-0.2 -49.38,-5.24 -60.3,-0.42 -10.89,4.79 -28.85,14.68 -38.61,14.45 -12.36,-0.27 -19.77,4.88 -25.2,-5.72 -5.38,-10.6 3.09,-20.1 7.85,-22.52 18.99,-9.68 67.96,-38.61 97.74,-51.28 26.02,-11.04 50.56,-16.7 55.46,-17.83 13.27,-3.08 35.92,-21.27 78.13,12.13 14.14,11.14 15.77,11.99 26.48,22.86 3.28,3.3 12.22,10.83 13.56,13.5 1.35,2.65 4.33,9.99 4.33,9.99z"/>
  <path class="fil0" d="M5189.85 2283.22c-3.85,9.1 -5.53,8.01 -18.23,12.24 -12.66,4.2 -20.99,-3.39 -30.2,-8.35 -9.19,-4.97 -9.72,-33.62 -7.38,-40.74 2.27,-7.11 -6.81,-14.43 -3.66,-30.14 3.14,-15.69 11.92,-11.91 22.88,-9.32 10.96,2.56 20.8,16.09 20.8,16.09 0,-0.01 2.5,22.46 5.87,31.88 6.12,17.47 16.34,13.19 9.93,28.33zm105.35 93.21c-2.8,-18.59 -6.96,-23.87 -12.13,-41.31 -5.13,-17.4 -106.04,-202.26 -110.32,-216.41 -4.24,-14.16 -18.7,-39.79 -31.78,-53.91 -13.12,-14.09 -18.97,-10.73 -29.68,-14.55 -15.41,-5.51 -15.5,-6.02 -30.54,-10.43 -15.69,-4.61 -33.04,7.93 -37.08,21.85 -4.05,13.92 3.12,22.15 8.5,29.8 5.37,7.63 5.97,10.79 17.87,17.77 12.5,7.36 24.94,16.81 28.25,23.28 3.3,6.46 8.37,18.53 6.71,27.34 -1.05,5.7 -7.51,6.77 -9.99,9.93 -6.73,8.61 -11.08,19.01 -15.98,35.58 -4.92,16.6 -6.41,16.62 -17.94,15.8 -11.52,-0.8 -11,-9.95 -24.75,-31.15 -13.73,-21.18 -21.3,-41.34 -31.23,-60.78 -9.88,-19.44 -31.13,-53.51 -40.63,-68.88 -9.02,-14.62 -24.9,-45.83 -35.84,-43.96 -10.91,1.85 -23.81,17.31 -29.02,31.85 -5.09,14.17 -13.9,13.81 -13.06,31.14 1.04,22.44 11.15,29.17 29.07,52.68 17.9,23.51 48.58,56.11 57.29,71.72 5.93,10.68 28.18,49.57 37.9,78.05 4.44,13.07 4.64,24.12 1.26,26.58 -4.48,3.27 -13.15,14.47 -35.08,12.68 -10.03,-0.82 -19.24,-4.29 -29.05,-10.43 -11.55,-7.21 -27.19,-25.87 -33.46,-36 -7.17,-11.66 -9.76,-14.34 -13.37,-23.96 -4.21,-11.19 -6.21,-41.33 -10.12,-48.98 -3.87,-7.68 -41.12,-4.27 -67.55,20.3 -10.58,9.81 -19.52,31.97 -16.57,51.57 2.55,17.03 32.24,68.03 42.98,81.87 10.73,13.8 26.17,23.75 40.15,35.17 15.9,12.97 40.74,13.1 59.92,11.48 19.2,-1.6 66.69,-17.44 75.21,-21.05 8.54,-3.6 15.29,-4.82 25.11,2.8 9.8,7.63 13.08,45.74 38.09,106.04 9.74,23.41 20.8,45.43 30.7,51.86 16.62,10.83 56.66,-14 62.57,-16.99 5.87,-3.03 -5.78,-19.29 -11.32,-37.9 -5.93,-19.82 -22.74,-49.36 -28.19,-64.38 -1.95,-5.49 0.42,-12.91 -0.13,-17.75 -0.97,-8.5 -2.55,-12.2 -3.72,-20.08 -1.85,-12.41 9.13,-10.12 15.33,-8.08 6.25,2.02 6.54,4.08 15.43,8.44 8.92,4.37 23.85,23.49 30.39,30.54 6.54,7.05 22.44,36.78 28.41,45.62 5.97,8.83 20.8,14.62 25.22,13.12 4.42,-1.51 9.4,-4.82 15.92,-8.12 6.46,-3.3 28.75,-27.99 32.24,-32.74 3.54,-4.76 -3.22,-38.41 -6.02,-57.02z"/>
 </g>
</svg>
